<svg
  version="1.1"
  xmlns="http://www.w3.org/2000/svg"
  xmlns:xlink="http://www.w3.org/1999/xlink"
  width="127.06428"
  height="127.06429"
  viewBox="0,0,127.06428,127.06429"
>
  <g transform="translate(-176.48286,-116.48001)">
    <g
      data-paper-data='{"isPaintingLayer":true}'
      fill-rule="nonzero"
      stroke-linejoin="miter"
      stroke-miterlimit="10"
      stroke-dasharray=""
      stroke-dashoffset="0"
      style="mix-blend-mode: normal"
    >
      <g fill="#282a36" stroke="none" stroke-width="0" stroke-linecap="butt">
        <path d="M194.83334,243.5v-127h90.33333v127z" />
        <path
          d="M303.50595,225.1583l-127,0.01673l-0.0119,-90.33333l127,-0.01673z"
        />
        <path
          d="M176.48286,134.86929c0,-10.15612 8.23317,-18.38928 18.38929,-18.38928c10.15612,0 18.38929,8.23316 18.38929,18.38928c0,10.15612 -8.23317,18.38929 -18.38928,18.38929c-10.15612,0 -18.38929,-8.23317 -18.38929,-18.38928z"
        />
        <path
          d="M266.76858,134.86929c0,-10.15612 8.23317,-18.38928 18.38929,-18.38928c10.15612,0 18.38928,8.23316 18.38928,18.38928c0,10.15612 -8.23316,18.38929 -18.38928,18.38929c-10.15612,0 -18.38929,-8.23317 -18.38929,-18.38928z"
        />
        <path
          d="M176.48286,225.155c0,-10.15612 8.23317,-18.38928 18.38929,-18.38928c10.15612,0 18.38929,8.23317 18.38929,18.38929c0,10.15612 -8.23317,18.38929 -18.38928,18.38929c-10.15612,0 -18.38929,-8.23317 -18.38929,-18.38928z"
        />
        <path
          d="M266.76858,225.155c0,-10.15612 8.23317,-18.38928 18.38929,-18.38928c10.15612,0 18.38928,8.23317 18.38928,18.38929c0,10.15612 -8.23316,18.38929 -18.38928,18.38929c-10.15612,0 -18.38929,-8.23317 -18.38929,-18.38928z"
        />
      </g>
      <g fill="none" stroke="#ffffff" stroke-width="4">
        <path
          d="M265.01872,146.83395l-2.88573,79.72412h-44.01385l-2.79503,-79.84977"
          stroke-linecap="butt"
        />
        <path d="M240.17974,224.49004v-73.28871" stroke-linecap="round" />
        <path
          d="M226.47346,151.20133l1.93232,73.28871"
          stroke-linecap="round"
        />
        <path
          d="M253.68867,151.23541l-1.93232,73.28871"
          data-paper-data='{"index":null}'
          stroke-linecap="round"
        />
        <path
          d="M210.1318,218.04348c-10.23058,-7.74156 -16.84053,-20.01628 -16.84053,-33.83482c0,-12.51507 5.42175,-23.76382 14.04459,-31.52558"
          stroke-linecap="butt"
        />
        <path
          d="M272.66416,152.27413c8.62283,7.76176 14.04459,19.01051 14.04459,31.52558c0,13.81855 -6.60995,26.09326 -16.84053,33.83482"
          data-paper-data='{"index":null}'
          stroke-linecap="butt"
        />
        <g stroke-linecap="round">
          <path d="M206.47158,141.88725h67.41634" />
          <path
            d="M224.56615,141.8153l4.29403,-8.37337h22.54368l4.29403,8.15866"
          />
        </g>
      </g>
    </g>
  </g>
</svg>
